<?xml version="1.0" encoding="UTF-8" standalone="no"?>
<!-- Created with Inkscape (http://www.inkscape.org/) -->

<svg
   width="210mm"
   height="297mm"
   viewBox="0 0 210 297"
   version="1.1"
   id="svg1"
   inkscape:export-filename="favicon.png"
   inkscape:export-xdpi="100.22459"
   inkscape:export-ydpi="100.22459"
   inkscape:version="1.3.2 (091e20ef0f, 2023-11-25)"
   sodipodi:docname="icon.svg"
   xmlns:inkscape="http://www.inkscape.org/namespaces/inkscape"
   xmlns:sodipodi="http://sodipodi.sourceforge.net/DTD/sodipodi-0.dtd"
   xmlns="http://www.w3.org/2000/svg"
   xmlns:svg="http://www.w3.org/2000/svg">
  <sodipodi:namedview
     id="namedview1"
     pagecolor="#ffffff"
     bordercolor="#000000"
     borderopacity="0.25"
     inkscape:showpageshadow="2"
     inkscape:pageopacity="0.0"
     inkscape:pagecheckerboard="0"
     inkscape:deskcolor="#d1d1d1"
     inkscape:document-units="mm"
     inkscape:zoom="0.684102"
     inkscape:cx="344.24691"
     inkscape:cy="491.88571"
     inkscape:window-width="1920"
     inkscape:window-height="1011"
     inkscape:window-x="1920"
     inkscape:window-y="32"
     inkscape:window-maximized="1"
     inkscape:current-layer="layer1"
     inkscape:export-bgcolor="#1c458b33"
     showguides="true" />
  <defs
     id="defs1" />
  <g
     inkscape:label="Layer 1"
     inkscape:groupmode="layer"
     id="layer1">
    <path
       style="fill:#83e6b6;stroke-width:0.264583;fill-opacity:1"
       d="M 14.220994,130.72375 73.292816,60.712706"
       id="path1" />
    <path
       style="fill:#83e6b6;stroke-width:0.264583;fill-opacity:1"
       d="m 28.441988,117.59668 c 0,0 40.401303,-78.533915 48.910023,-64.223793 8.508722,14.310124 -3.8676,58.400773 -4.64112,58.014013 -0.77352,-0.38676 22.432084,-13.923365 30.554039,-35.968689 8.12197,-22.045324 47.57149,3.09408 31.71433,13.536602 C 119.1221,99.397335 110.61338,129.17786 96.690015,97.850295 82.766653,66.522729 136.91306,68.456531 139.62038,65.362449"
       id="path2" />
    <path
       style="fill:#83e6b6;stroke-width:0.264583;fill-opacity:1"
       id="path3"
       d="m 31.554189,88.919869 c 3.54566,-1.67472 2.896013,-1.459804 8.489215,-3.149314 8.57454,-2.590065 21.612923,-5.853081 29.5692,-7.803629 12.021479,-2.947164 35.304026,-8.34672 47.042496,-11.087803 7.5786,-1.725174 15.1572,-3.450347 22.7358,-5.175518 0,0 -0.99293,-0.687421 -0.99293,-0.687421 v 0 c -7.51243,1.770919 -15.02485,3.541839 -22.53728,5.312759 -24.870954,5.631518 -23.385173,5.336114 -47.642442,10.673442 -13.522891,2.975443 -18.577465,3.894955 -30.778648,6.992083 -2.344434,0.595106 -4.683745,1.21585 -6.997444,1.921044 -0.752798,0.229447 -1.460685,0.586349 -2.191028,0.879523 z" />
  </g>
</svg>
